<?xml version="1.0" encoding="UTF-8"?>
<svg width="30px" height="30px" viewBox="0 0 30 30" version="1.1" xmlns="http://www.w3.org/2000/svg" xmlns:xlink="http://www.w3.org/1999/xlink">
    <!-- Generator: Sketch 54.1 (76490) - https://sketchapp.com -->
    <title>logo</title>
    <desc>Created with Sketch.</desc>
    <defs>
        <linearGradient x1="2.85937225%" y1="1050.34106%" x2="100.835974%" y2="-679.177997%" id="linearGradient-1">
            <stop stop-color="#006CB5" offset="0%"></stop>
            <stop stop-color="#D768D9" offset="100%"></stop>
        </linearGradient>
    </defs>
    <g id="Page-1" stroke="none" stroke-width="1" fill="none" fill-rule="evenodd" stroke-opacity="0">
        <g id="logo" fill="url(#linearGradient-1)" fill-rule="nonzero" stroke="#000000">
            <path d="M9.31571429,19.4919048 C9.32174863,13.8881445 13.8624314,9.34660961 19.4661905,9.33952381 L25.3490476,9.33952381 L25.3490476,4.54047619 L19.4661905,4.54047619 C15.4987232,4.53041509 11.6921062,6.10793205 8.8947619,8.92142857 C6.08275806,11.7195035 4.50651846,15.5259344 4.51714286,19.4928571 C4.50460268,22.824222 5.61647825,26.0623688 7.67285714,28.6833333 L2.57142857,28.6833333 C1.04015984,25.8620631 0.238091538,22.7028961 0.238095238,19.4928571 C0.224098426,14.3904411 2.25189732,9.4944711 5.86952381,5.89619048 C9.46751038,2.2777768 14.3639015,0.249703049 19.4666667,0.264285714 L25.3495238,0.264285714 L25.3495238,0.239047619 L29.6166667,0.239047619 L29.6166667,0.264285714 L29.6238095,0.264285714 L29.6238095,4.54142857 L29.6166667,9.34047619 L29.6166667,20.1271429 L29.5966667,20.1271429 C29.2564897,25.473602 24.823934,29.6375749 19.4666667,29.6433333 C13.8629843,29.6367727 9.32201203,25.0955874 9.31571429,19.4919048 L9.31571429,19.4919048 Z M14.2809524,19.552381 C14.2848887,22.2658403 16.4841583,24.4642579 19.197619,24.4671429 C21.9106617,24.463994 24.109232,22.2654236 24.112381,19.552381 C24.1100197,16.8387031 21.9112958,14.639127 19.197619,14.6357143 C16.4835244,14.6388632 14.2841013,16.8382863 14.2809524,19.552381 Z" id="Shape"></path>
        </g>
    </g>
</svg>