<svg xmlns="http://www.w3.org/2000/svg" width="683.809" height="692.48" viewBox="0 0 683.809 692.48"><defs><style>.a{opacity:0.05;}.b,.c,.d{fill:#7d5299;}.b,.s{opacity:0.5;}.d{opacity:0.7;}.e,.g{fill:#a66dcc;}.e{opacity:0.21;}.f{opacity:0.4;}.h,.k,.t{fill:none;stroke-miterlimit:10;}.h,.k{stroke:#072733;stroke-linecap:round;}.h{stroke-width:5.8px;}.i{opacity:0.54;}.j,.p{fill:#f8985f;}.k{stroke-width:2.578px;}.l,.m,.n{fill:#ff877d;}.m{opacity:0.2;}.n,.p{opacity:0.3;}.aa,.o,.x{fill:#33959f;}.q{fill:#0c1d25;}.r,.s,.w,.y{fill:#ffc937;}.t{stroke:#bf9729;stroke-width:1.289px;}.u{fill:#bf9729;}.v{fill:#813ec1;}.v,.z{opacity:0.63;}.w{opacity:0.49;}.x{opacity:0.19;}.y{opacity:0.53;}.z{fill:#a45bdd;}.aa{opacity:0.18;}</style></defs><g transform="translate(-939.995 -97.061)"><g class="a" transform="translate(939.995 103.215)"><g transform="translate(0 0)"><rect class="b" width="92.439" height="45.272" rx="2.309" transform="translate(520.402 94.517) rotate(180)"/><rect class="c" width="92.439" height="45.272" rx="2.309" transform="translate(424.378 94.517) rotate(180)"/><rect class="b" width="92.439" height="45.272" rx="2.309" transform="translate(328.354 94.517) rotate(180)"/><rect class="c" width="92.439" height="45.272" rx="2.309" transform="translate(381.781 45.272) rotate(180)"/><rect class="c" width="92.439" height="45.272" rx="2.309" transform="translate(572.704 143.763) rotate(180)"/><rect class="b" width="92.439" height="45.272" rx="2.309" transform="translate(477.805 143.763) rotate(180)"/><rect class="b" width="92.439" height="45.272" rx="2.309" transform="translate(381.781 143.763) rotate(180)"/><rect class="c" width="92.439" height="45.272" rx="2.309" transform="translate(285.758 143.763) rotate(180)"/><rect class="c" width="92.439" height="45.272" rx="2.309" transform="translate(569.898 242.254) rotate(180)"/><rect class="d" width="92.439" height="45.272" rx="2.309" transform="translate(474.999 242.254) rotate(180)"/><rect class="b" width="92.439" height="45.272" rx="2.309" transform="translate(378.975 242.254) rotate(180)"/><rect class="b" width="92.439" height="45.272" rx="2.309" transform="translate(282.952 242.254) rotate(180)"/><rect class="c" width="92.439" height="45.272" rx="2.309" transform="translate(527.302 193.008) rotate(180)"/><rect class="b" width="92.439" height="45.272" rx="2.309" transform="translate(432.402 193.008) rotate(180)"/><rect class="c" width="92.439" height="45.272" rx="2.309" transform="translate(336.378 193.008) rotate(180)"/><rect class="d" width="92.439" height="45.272" rx="2.309" transform="translate(240.355 193.008) rotate(180)"/><rect class="c" width="92.439" height="45.272" rx="2.309" transform="translate(527.302 291.499) rotate(180)"/><rect class="b" width="92.439" height="45.272" rx="2.309" transform="translate(432.402 291.499) rotate(180)"/><rect class="c" width="92.439" height="45.272" rx="2.309" transform="translate(336.378 291.499) rotate(180)"/><rect class="b" width="92.439" height="45.272" rx="2.309" transform="translate(240.355 291.499) rotate(180)"/><rect class="b" width="92.439" height="45.272" rx="2.309" transform="translate(525.303 391.909) rotate(180)"/><rect class="c" width="92.439" height="45.272" rx="2.309" transform="translate(429.279 391.909) rotate(180)"/><rect class="b" width="92.439" height="45.272" rx="2.309" transform="translate(333.256 391.909) rotate(180)"/><rect class="c" width="92.439" height="45.272" rx="2.309" transform="translate(577.606 342.663) rotate(180)"/><rect class="d" width="92.439" height="45.272" rx="2.309" transform="translate(482.706 342.663) rotate(180)"/><rect class="c" width="92.439" height="45.272" rx="2.309" transform="translate(386.682 342.663) rotate(180)"/><rect class="b" width="92.439" height="45.272" rx="2.309" transform="translate(290.659 342.663) rotate(180)"/><rect class="d" width="92.439" height="45.272" rx="2.309" transform="translate(193.318 342.663) rotate(180)"/><rect class="c" width="92.439" height="45.272" rx="2.309" transform="translate(158.334 491.291) rotate(180)"/><rect class="b" width="92.439" height="45.272" rx="2.309" transform="translate(204.374 541.564) rotate(180)"/><rect class="b" width="92.439" height="45.272" rx="2.309" transform="translate(193.318 441.018) rotate(180)"/><rect class="d" width="92.439" height="45.272" rx="2.309" transform="translate(232.331 94.517) rotate(180)"/><rect class="c" width="92.439" height="45.272" rx="2.309" transform="translate(136.307 94.517) rotate(180)"/><rect class="d" width="92.439" height="45.272" rx="2.309" transform="translate(188.463 143.403) rotate(180)"/><rect class="c" width="92.439" height="45.272" rx="2.309" transform="translate(92.439 186.541) rotate(180)"/><rect class="d" width="92.439" height="45.272" rx="2.309" transform="translate(184.607 242.254) rotate(180)"/><rect class="c" width="92.439" height="45.272" rx="2.309" transform="translate(577.606 441.154) rotate(180)"/><rect class="b" width="92.439" height="45.272" rx="2.309" transform="translate(482.706 441.154) rotate(180)"/><rect class="b" width="92.439" height="45.272" rx="2.309" transform="translate(386.682 441.154) rotate(180)"/><rect class="c" width="92.439" height="45.272" rx="2.309" transform="translate(290.659 441.154) rotate(180)"/><rect class="b" width="92.439" height="45.272" rx="2.309" transform="translate(683.809 541.564) rotate(180)"/><rect class="b" width="92.439" height="45.272" rx="2.309" transform="translate(641.212 492.318) rotate(180)"/><rect class="c" width="92.439" height="45.272" rx="2.309" transform="translate(587.344 541.564) rotate(180)"/><rect class="d" width="92.439" height="45.272" rx="2.309" transform="translate(492.445 541.564) rotate(180)"/><rect class="b" width="92.439" height="45.272" rx="2.309" transform="translate(396.421 541.564) rotate(180)"/><rect class="b" width="92.439" height="45.272" rx="2.309" transform="translate(300.397 541.564) rotate(180)"/><rect class="c" width="92.439" height="45.272" rx="2.309" transform="translate(544.747 492.318) rotate(180)"/><rect class="b" width="92.439" height="45.272" rx="2.309" transform="translate(449.848 492.318) rotate(180)"/><rect class="c" width="92.439" height="45.272" rx="2.309" transform="translate(353.824 492.318) rotate(180)"/><rect class="b" width="92.439" height="45.272" rx="2.309" transform="translate(257.801 492.318) rotate(180)"/><rect class="b" width="92.439" height="45.272" rx="2.309" transform="translate(449.848 590.809) rotate(180)"/><rect class="c" width="92.439" height="45.272" rx="2.309" transform="translate(353.824 590.809) rotate(180)"/><rect class="d" width="92.439" height="45.272" rx="2.309" transform="translate(257.801 590.809) rotate(180)"/><rect class="b" width="92.439" height="45.272" rx="2.309" transform="translate(204.374 637.081) rotate(180)"/><rect class="d" width="92.439" height="45.272" rx="2.309" transform="translate(492.445 637.081) rotate(180)"/><rect class="b" width="92.439" height="45.272" rx="2.309" transform="translate(396.421 637.081) rotate(180)"/><rect class="b" width="92.439" height="45.272" rx="2.309" transform="translate(300.397 637.081) rotate(180)"/><rect class="b" width="92.439" height="45.272" rx="2.309" transform="translate(449.848 686.326) rotate(180)"/><rect class="c" width="92.439" height="45.272" rx="2.309" transform="translate(353.824 686.326) rotate(180)"/><rect class="d" width="92.439" height="45.272" rx="2.309" transform="translate(257.801 686.326) rotate(180)"/></g></g><ellipse class="e" cx="242.916" cy="12.615" rx="242.916" ry="12.615" transform="translate(989.505 762.661)"/><g class="f" transform="translate(999.167 97.061)"><path class="g" d="M1103.618,279.691c22.879-20.979,34.21-61.786,57.554-81.921,7.072-6.1,7.172-27.288,20.814-22.923q-2.5,4.019-5.007,8.039c11.195-2.2,10.018-16.085,17.088-22.183,4.125,3.893,6.184,5.837,9.92,5.1-3.342,5.362-10.413,11.458-11.692,18.772l6.177,5.83c5.408-3.417,6.295-15.351,11.69-18.772l8.25,7.786c2.058,1.943,3.728-.74,5.4-3.419-1.669,2.679-5.011,8.046-6.679,10.725l8.24,7.778c2.067,1.95,3.734-.729,5.406-3.413,4.121,3.889,9.914,5.1,10.3,9.724q-2.508,4.028-5.011,8.046c8.744-8.781,22.387-4.42,28.571,1.417-3.737.738,2.451,6.576-1.281,7.308,11.191-2.207,24.444-2.472,19.823,10.194-52.255,99.688-120.611,188.438-183.176,278.4-5.4,3.415-7.849-3.162-11.972-7.053,6.675-10.718,15.418-19.5,16.3-31.432,1.67-2.681-9.91-5.105-12.371-11.678,1.67-2.683,5.009-8.046,6.681-10.731-4.51-8.509-14.031-8.98-18.545-17.5s6.29-15.345,3.835-21.919c.9-11.939-9.519-.47-14.528,7.573-2.454-6.57-3.339,5.364-7.463,1.473-8.242-7.78-16.49-15.565-15.991-32.124-.393-4.629-8.244-7.782-12.365-11.671C1053.629,338.94,1075.337,304.081,1103.618,279.691Z" transform="translate(-897.169 -27.705)"/><path class="g" d="M969.589,526.159c27.123-42.211,57.3-83.346,87.889-123.946,2.244-3.793,4.635-7.521,4.589-9.642,3.68-10.1-6.719,4.006-12.361,12.842-.092-4.2-3.762,5.893-5.734,4.633-2.088-1.333-4.165-2.683-4.988-5.676a6.67,6.67,0,0,1-1.595.305q.649-.922,1.3-1.843a13.742,13.742,0,0,1-.071-1.854c-4.51,4.023-6.016,10.171-10.219,14.413-1.912-1.35-2.867-2.023-5.166-.8,2.679-3.8,7.653-8.817,9.375-13.291l-2.863-2.021c-3.639,3.124-5.743,10.167-9.377,13.291-.957-.675-2.869-2.023-3.824-2.7s-2.294,1.225-3.632,3.122l5.354-7.594-3.822-2.7c-.957-.675-2.295,1.223-3.636,3.122-1.91-1.348-5.161-.8-4.777-3.369l4.019-5.7c-6.315,6.919-13.772,7.348-16.639,5.325,2.3-1.227-.572-3.25,1.724-4.472-6.886,3.672-14.727,6.671-10.323-1.595,43.994-68.467,96.025-134.113,144.8-199.209,3.636-3.122,4.2.13,6.117,1.477-5.354,7.588-11.667,14.509-13.771,21.552-1.339,1.9,5.16.8,5.739,4.046l-5.36,7.6c1.527,3.918,7.074,2.142,8.6,6.067s-5.738,10.163-5.166,13.41c-1.118,3.732.512,3,2.88.648,13.755-21.788,27.008-45.231,41.8-63.546,6.631-8.211,12.089-25.455,20.779-28.2q-2.818,4.417-5.64,8.836c8.6-6.944,11.285-17.675,17.913-25.88,1.973,1.258,2.957,1.887,5.829-.433-3.764,5.9-10.392,14.1-13.17,20.626l2.955,1.887c4.752-5.264,8.422-15.36,13.17-20.626.989.631,2.959,1.891,3.946,2.52s2.867-2.318,4.746-5.26l-7.523,11.782c.984.629,2.957,1.889,3.942,2.516s2.867-2.311,4.752-5.262c1.97,1.26,5.824-.428,4.928,3.147q-2.828,4.426-5.645,8.84c5.007-6.564,10.069-10.2,14-11.709,5.4-8.817,10.952-17.333,17.293-24.352,4.738-5.245,7.043-17.552,14.472-18.319l-3.749,5.87c6.708-3.981,7.5-11.744,12.236-16.988,1.973,1.258,2.959,1.887,5.2.558-2.5,3.916-7.239,9.159-8.754,13.709l2.955,1.885c3.492-3.287,5.268-10.42,8.754-13.707l3.946,2.518c.984.629,2.236-1.329,3.486-3.285-1.25,1.956-3.751,5.874-5,7.832l3.941,2.516c.988.631,2.238-1.325,3.49-3.285,1.971,1.258,5.193.558,4.928,3.145q-1.878,2.943-3.751,5.876c5.987-7.2,13.416-7.972,16.375-6.085-2.24,1.331.719,3.22-1.517,4.547,6.708-3.985,14.4-7.343,10.386,1.116-40.8,70.421-89.751,138.39-135.482,205.662-3.488,3.287-4.2.065-6.177-1.193,5-7.828,10.986-15.03,12.764-22.162,1.252-1.96-5.191-.564-5.918-3.78,1.252-1.958,3.751-5.874,5-7.835-1.705-3.843-7.164-1.814-8.871-5.665s5.266-10.415,4.545-13.634c1.782-7.137-5.459,2.029-9.208,7.9-.008-.036-.019-.052-.025-.086-20.3,31.154-40.97,62.166-61.658,93.036a3.881,3.881,0,0,1,.631,1.041c1.53,3.918-5.739,10.163-5.166,13.41-2.111,7.047,5.544-1.776,9.561-7.471.575,3.245,2.679-3.8,4.591-2.447,3.822,2.7,7.649,5.394,5.158,15.007-.382,2.575,3.824,2.7,5.736,4.046-16.068,22.781-33.478,47.461-53.368,67.541-16.256,16.961-28.341,42.826-44.761,59.4-4.974,5.022-7.843,17.209-15.3,17.633q2.006-2.846,4.017-5.693c-6.886,3.668-8.033,11.389-13.007,16.409-1.912-1.35-2.867-2.023-5.166-.8,2.679-3.8,7.653-8.817,9.375-13.291l-2.863-2.021c-3.638,3.124-5.743,10.167-9.377,13.291-.957-.675-2.869-2.023-3.824-2.7s-2.295,1.225-3.632,3.122l5.354-7.594-3.82-2.7c-.959-.675-2.3,1.222-3.638,3.122-1.91-1.348-5.162-.8-4.777-3.371q2.013-2.849,4.019-5.695c-6.315,6.919-13.772,7.348-16.639,5.323,2.3-1.225-.57-3.247,1.724-4.47C973.026,531.425,965.185,534.424,969.589,526.159Z" transform="translate(-968.31 -97.061)"/></g><g transform="translate(1010.539 125.852)"><g transform="translate(151.948 265.736)"><line class="h" x2="150.237" y2="382.337"/><line class="h" x2="150.237" y2="382.337" transform="translate(133.892)"/><line class="h" x2="137.388" transform="translate(26.055 66.307)"/><line class="h" x2="137.388" transform="translate(51.167 130.17)"/><line class="h" x2="137.388" transform="translate(76.755 191.168)"/><line class="h" x2="137.388" transform="translate(96.096 247.661)"/><line class="h" x2="137.388" transform="translate(118.13 304.154)"/><g class="i"><line class="h" x2="150.237" y2="382.337"/><line class="h" x2="150.237" y2="382.337" transform="translate(133.892)"/><line class="h" x2="137.388" transform="translate(26.055 66.307)"/><line class="h" x2="137.388" transform="translate(51.167 130.17)"/><line class="h" x2="137.388" transform="translate(76.755 191.168)"/><line class="h" x2="137.388" transform="translate(96.096 247.661)"/><line class="h" x2="137.388" transform="translate(118.13 304.154)"/></g></g><path class="j" d="M1075.413,181.98c-21.441,4.067-33.723-20.369-33.723-20.369l-8.535,11.036,2.418,7.786a26.466,26.466,0,0,0,13.08,8.288c6.338,5.993,4.033,16.785,4.033,16.785s14.835-2.073,21.27-4.021l1.354-4.616c-2.924-2.015-5.321-4.159-5.279-9.9A19.157,19.157,0,0,0,1075.413,181.98Z" transform="translate(-909.016 -55.507)"/><g transform="translate(0 265.736)"><line class="h" x1="150.237" y2="382.337" transform="translate(133.892)"/><line class="h" x1="150.237" y2="382.337"/><line class="k" x1="150.237" y2="382.337" transform="translate(3.098)"/><line class="h" x1="137.388" transform="translate(120.685 66.307)"/><line class="h" x1="137.388" transform="translate(95.574 130.17)"/><line class="h" x1="137.388" transform="translate(69.985 191.168)"/><line class="h" x1="137.388" transform="translate(50.645 247.661)"/><line class="h" x1="137.388" transform="translate(28.61 304.154)"/><line class="k" x1="137.388" transform="translate(25.917 306.848)"/><line class="k" x1="137.388" transform="translate(47.166 250.355)"/><line class="k" x1="137.388" transform="translate(68.331 194.824)"/><line class="k" x1="137.388" transform="translate(93.207 132.841)"/><line class="k" x1="137.388" transform="translate(119.339 70.452)"/></g><path class="l" d="M1087.5,254.265,1074.478,324.3s-20.2,95.306-20.2,102.488,22,16.476,21.1,20.515-35.913-2.244-39.5-4.04,3.279-12.975,3.279-18.363-8.217-50.771-6.42-69.627c1.327-13.945,6.585-27.89,9.233-34.207a15.057,15.057,0,0,0,1.07-7.508c-1.755-15.69-7.323-72.956,2.714-90.715C1057.419,202.192,1087.5,254.265,1087.5,254.265Z" transform="translate(-909.761 5.942)"/><path class="m" d="M1087.5,254.265,1074.478,324.3s-20.2,95.306-20.2,102.488,22,16.476,21.1,20.515-35.913-2.244-39.5-4.04,3.279-12.975,3.279-18.363-8.217-50.771-6.42-69.627c1.327-13.945,6.585-27.89,9.233-34.207a15.057,15.057,0,0,0,1.07-7.508c-1.755-15.69-7.323-72.956,2.714-90.715C1057.419,202.192,1087.5,254.265,1087.5,254.265Z" transform="translate(-909.761 5.942)"/><path class="n" d="M1042.963,411.308c.947-11.767,9.987-87.651,11.433-97.3,1.563-10.436-5.845-75.762-5.845-75.762l6.3-7.4h15.255c3.622,5.385,5.956,9.427,5.956,9.427L1063.046,310.3S1044.61,397.275,1042.963,411.308Z" transform="translate(-898.328 19.938)"/><path class="l" d="M1058.543,216.292c41.622-2.28,73.188,27,84.021,39.549,6.474,7.5,7.082,13.157,6.861,18.6h.037s1.952,8.081-17.911,45.791c0,0-26.6,47.473-24.241,54.543,0,0,.336,6.733,11.446,9.427s12.12,7.745,9.09,7.745-37.035.336-38.719-2.357,3.166-11.784,3.166-16.835c0-16.106.42-32.3,3.021-48.223.66-4.033,5.864-30.061,11.649-39.386a3.673,3.673,0,0,0-1.791-5.379c-16.687-6.5-46.426-22.563-54.426-29.5a110.4,110.4,0,0,1-14.211-14.57Z" transform="translate(-905.332 3.944)"/><path class="o" d="M1087.5,191.281l-3.241-10.589s-6.522,1.239-13.661,12.814-27.169,68.653-51.21,84.855c0,0-5.958,6.46-10.842,9.32a7.19,7.19,0,0,0-3.266,5.655c-.364,4.226,15.949-5.709,20.607-8.179,0,0,34.174-14.309,48.483-35.52S1087.5,191.281,1087.5,191.281Z" transform="translate(-939.397 -34.714)"/><path class="j" d="M1046.057,153.9s7.329-1.534,13.7,2.533,9.937,9.868,12.722,10.965a14.118,14.118,0,0,0,4.393,1.151s.963,2-.871,4.543c0,0,6.244,8.533,2.627,15.308-4.418,8.275-13.813,11.711-22.946,10.2-9.159-1.519-14.419-4.416-20.269-11.713S1028.358,157.056,1046.057,153.9Z" transform="translate(-910.786 -64.219)"/><path class="p" d="M1075.413,181.98c-21.441,4.067-33.723-20.369-33.723-20.369l-8.535,11.036,2.418,7.786a26.466,26.466,0,0,0,13.08,8.288c6.338,5.993,4.033,16.785,4.033,16.785s14.835-2.073,21.27-4.021l1.354-4.616c-2.924-2.015-5.321-4.159-5.279-9.9A19.157,19.157,0,0,0,1075.413,181.98Z" transform="translate(-909.016 -55.507)"/><path class="q" d="M1039.22,162.941s13.655-8.581,28.5-10.917c0,0,.176,2.349-7.024,5.364-3.584,1.5,7.672-1.07,7.672-1.07s-1.636,9.368-22.348,16.846S1039.22,162.941,1039.22,162.941Z" transform="translate(-907.392 -65.955)"/><path class="q" d="M1036.36,158.925s16.461-3.705,9.205,17.121c-2.648,7.6,13.8,13.667,11.609,22.218-1.153,4.5-3.276,6.292-3.276,6.292s.491-3.007-6.984-7.331-15.274-10.1-16.656-20.791A21.371,21.371,0,0,1,1036.36,158.925Z" transform="translate(-912.358 -58.713)"/><path class="q" d="M1046.58,194.779a30.894,30.894,0,0,1,3.2,7.122,30.175,30.175,0,0,0-2.94-1.925c-7.475-4.326-15.274-10.1-16.656-20.791-.013-.1-.013-.194-.023-.295l29.294-22.745S1035.632,176.3,1046.58,194.779Z" transform="translate(-912.281 -61.463)"/><g transform="translate(109.445 75.476)"><path class="r" d="M1075.2,151.862s-25.41,33.25-42.172,48.184a.728.728,0,0,1-1.154-.821l.8-2.015a3.3,3.3,0,0,0-.422-3.193c-3.488-4.671-12.973-20.2,2.257-34.567,5.306-5.007,14.12-9.582,26.03-3.837a6.158,6.158,0,0,0,7.057-1.321c3.254-3.335,7.925-7.816,9.068-7.3C1078.465,147.816,1075.2,151.862,1075.2,151.862Z" transform="translate(-1026.124 -146.955)"/><path class="s" d="M1050.809,164.431c-10.833,6.5-19.122.57-23.886-4.932-2.88,10.227,2.8,19.326,5.327,22.714a3.3,3.3,0,0,1,.422,3.193l-.8,2.015a.728.728,0,0,0,1.154.821c8.593-7.657,19.454-20.12,28-30.456C1058.637,159.525,1055.35,161.7,1050.809,164.431Z" transform="translate(-1026.119 -135.152)"/></g><path class="j" d="M1042.713,166.32s-7.157-1.089-7.057,3.339,5.533,8.1,8.656,6.391" transform="translate(-906.293 -50.505)"/><path class="t" d="M1039.222,280.317l9.521-12.645s-1.271-34.5-29.85-33.024c0,0-21.807.5-21.807,36.2S1039.222,280.317,1039.222,280.317Z" transform="translate(-948.323 24.035)"/><path class="o" d="M1085.845,191.281l-3.241-10.589s-6.522,1.239-13.661,12.814-27.169,68.653-51.21,84.855c0,0-5.958,6.46-10.842,9.32-1.484.871,15.391.729,16.569-3.479,0,0,34.945-13.354,49.254-34.565S1085.845,191.281,1085.845,191.281Z" transform="translate(-937.739 -34.714)"/><path class="j" d="M1008.485,245.475c4.884-2.861,10.842-9.32,10.842-9.32,5.557-3.745,10.894-9.686,15.914-16.733,4.482,2.359,9.9,6.207,12.509,11.832a228.2,228.2,0,0,1-23.995,13.028c-3.636,7.076-5.674,5.4-5.674,5.4-2.27-.585-3.933.995-5.091,2.965-2.37,4.042-8.754,1.429-7.49-3.082A6.8,6.8,0,0,1,1008.485,245.475Z" transform="translate(-939.332 7.493)"/><path class="q" d="M1080.02,292.065c1.682,3.7,8.079,8.612,11.446,9.427,11.111,2.694,12.121,7.745,9.09,7.745s-37.035.336-38.719-2.357c-1.116-1.787,1.657-10.445,2.967-14.814C1072.992,294.24,1076.148,294.759,1080.02,292.065Z" transform="translate(-878.042 86.657)"/><path class="q" d="M1037.395,319.216c14.012,3.95,15.652-1.308,15.652-1.308,0,7.183,22,16.474,21.1,20.515s-35.913-2.244-39.5-4.042C1031.662,332.894,1035.87,324.957,1037.395,319.216Z" transform="translate(-908.532 114.82)"/><path class="o" d="M1033.6,320.112" transform="translate(-908.532 117.221)"/><path class="r" d="M1050.341,250.534v61.661c0,1.822-12.035,4.487-26.879,4.487s-26.878-2.664-26.878-4.487V250.534Z" transform="translate(-948.87 41.398)"/><path class="u" d="M996.584,252.256c0,1.824,12.033,3.3,26.878,3.3s26.879-1.477,26.879-3.3-12.035-3.3-26.879-3.3S996.584,250.434,996.584,252.256Z" transform="translate(-948.87 39.676)"/><path class="v" d="M1043.1,252.191c-4.016,1.041-12.629,1.764-22.636,1.764s-18.622-.723-22.636-1.764c4.014-1.043,12.628-1.766,22.636-1.766S1039.083,251.148,1043.1,252.191Z" transform="translate(-947.516 41.279)"/><path class="q" d="M1041.351,319.464c-.474,2.765-.339,7.623,4.819,11.87,5.667,4.666,19.544,6.65,26.523,7.375-6.748,1.745-34.853-3.408-38.052-5.009-2.978-1.488,1.229-9.425,2.754-15.165C1038.854,318.946,1040.149,319.236,1041.351,319.464Z" transform="translate(-908.532 115.502)"/><g transform="translate(226.622 17.18)"><path class="q" d="M1086.913,242.6a4.713,4.713,0,0,0,4.7-4.5l5.306-114.116a4.713,4.713,0,0,0-9.417-.439L1082.2,237.672a4.711,4.711,0,0,0,4.489,4.926C1086.765,242.6,1086.838,242.6,1086.913,242.6Z" transform="translate(-1082.195 -119.059)"/><path class="q" d="M1087.507,123.441a4.709,4.709,0,0,1,3.352-4.278,4.61,4.61,0,0,0-.119.8l-5.306,114.116a4.713,4.713,0,0,0,4.489,4.928c.075,0,.151.006.224.006a4.715,4.715,0,0,0,1.356-.222,4.709,4.709,0,0,1-4.589,3.7c-.075,0-.149,0-.224-.006a4.711,4.711,0,0,1-4.489-4.926Z" transform="translate(-1082.195 -118.946)"/></g><path class="q" d="M1061.837,306.879c-1.116-1.787,1.657-10.445,2.967-14.814l.468.123c.7,4.029,3.139,12.43,11.45,13.408,10.98,1.294,23.834,3.64,23.834,3.64C1097.526,309.237,1063.522,309.573,1061.837,306.879Z" transform="translate(-878.042 86.657)"/><path class="o" d="M1134.845,152.972s-9.5,28.665-24.139,43.3S1077.027,228.586,1050.2,232c0,0-4.879,1.952-4.879,8.294s-8.292,60-8.781,85.369c0,0,26.833,14.148,65.37-10.731l-5.853-59.516s40.807-21.763,49.421-91.954a37.164,37.164,0,0,0,.123-9.893,4.034,4.034,0,0,1,1.609-3.8c5.245-4.437,7.015-8.714,3.789-14.729a2.8,2.8,0,0,0-4.984.2,10.836,10.836,0,0,1-7.889,6.416C1129.83,143.118,1132.76,145.44,1134.845,152.972Z" transform="translate(-905.332 -86.022)"/><path class="w" d="M1050.341,301.764v7.375c0,1.822-12.035,4.487-26.879,4.487s-26.878-2.664-26.878-4.487v-55.8C1000.908,280.551,1016.4,300.824,1050.341,301.764Z" transform="translate(-948.87 44.453)"/><path class="x" d="M1096.052,191.9l5.853,59.516s-32.684,24.486-65.37,10.731C1036.536,262.144,1090.849,249.418,1096.052,191.9Z" transform="translate(-905.332 -22.503)"/><path class="j" d="M1087.756,152.972c-2.086-7.532-5.016-9.853,3.277-11.316a10.836,10.836,0,0,0,7.889-6.416,2.8,2.8,0,0,1,4.984-.2c3.226,6.014,1.457,10.292-3.789,14.729a4.035,4.035,0,0,0-1.609,3.8,37.164,37.164,0,0,1-.123,9.893c-.675,5.5-1.567,10.672-2.6,15.592a43.529,43.529,0,0,1-16.035-6.949A168.825,168.825,0,0,0,1087.756,152.972Z" transform="translate(-858.243 -86.022)"/><path class="p" d="M1042.713,166.32s-7.157-1.089-7.057,3.339,5.533,8.1,8.656,6.391" transform="translate(-906.293 -50.505)"/><g transform="translate(206.148 0.375)"><path class="r" d="M1075.371,131.2l54.311,2.524a3.114,3.114,0,0,0,3.258-2.978l.606-13.953a3.116,3.116,0,0,0-2.97-3.248l-6.807-.318-47.5-2.209a3.119,3.119,0,0,0-3.26,2.98l-.6,13.951A3.116,3.116,0,0,0,1075.371,131.2Z" transform="translate(-1072.399 -111.017)"/><path class="y" d="M1072.4,123.286l.347-7.987c4.706,2.28,13.838,5.243,30.224,5.945,19.489.834,27.378-1.8,30.325-3.4l-.358,8.236a3.114,3.114,0,0,1-3.258,2.978l-54.311-2.524A3.116,3.116,0,0,1,1072.4,123.286Z" transform="translate(-1072.399 -106.351)"/></g><path class="z" d="M1134.6,121l.117-3.72a4.5,4.5,0,0,0-4.347-4.641l-52.708-1.8c-3.641,0-4.539,1.712-4.833,4.134l-.37,3.036a2.1,2.1,0,0,0,2.5,2.357,1.72,1.72,0,0,0,1.285-1.678c.347-3.005,3.624-3.22,3.352,1.218-.495,8.112,2.312,10.7,4.972,8.094s3.005-11.97,4.046-9.542.295,7.312,4.836,6.921c2.558-.221,2.794-9.235,3.141-6.459s.926,4.972,2.89,4.625,1.565-2.376,3.066-1.849c2.5.876,2.224,8.177,6.29,8.188,6.326.017,3.13-10.731,5.791-9.343s4.017,4.437,7.283,3.584c3.375-.884,3.481-9.289,7.107-6.267C1131.255,119.726,1133.418,126.666,1134.6,121Z" transform="translate(-866.206 -110.838)"/><path class="aa" d="M1116.545,142.875s-18.093,72.736-63.217,74.412l.01-1.53c16.052-7.264,28.673-19.188,39.068-29.583C1107.041,171.54,1116.545,142.875,1116.545,142.875Z" transform="translate(-887.033 -75.925)"/><path class="z" d="M1046.175,251.194a3.665,3.665,0,0,1,4.305,3.858c-.418,5.878-1.436,12.177-3.7,10.11-3.308-3.018-3.108-12.5-6.221-8.884-2.836,3.293-6.857,14.465-8.5,5.135s-5.385-8-6.432-5.26c-1.373,3.584.821,14.856-3.408,14.856-5.084,0-3.051-14-7.068-14.856-3.628-.773-2.062,4.177-5.164,8.441-3.736,5.135-4.581-8.441-6.771-8.441-4.712,0-4.606,7.149-6.232,3.759-.9-1.881-.844-4.641-.612-6.725a2.738,2.738,0,0,1,3.187-2.393C1006.584,251.986,1026.247,254.642,1046.175,251.194Z" transform="translate(-949.266 41.639)"/><path class="n" d="M1075.946,246.6s11.312,3.235,7.609,6.873c-13.577,13.341-19.909,48.869-20.2,67.493,0,0,1.053-33.965,8.71-54.675,0,0,2.8-9.79,5.672-14.313C1077.737,251.98,1079.626,248.1,1075.946,246.6Z" transform="translate(-876.106 37.112)"/></g></g></svg>