<svg xmlns="http://www.w3.org/2000/svg" xmlns:xlink="http://www.w3.org/1999/xlink" width="295.764" height="62.749" viewBox="0 0 295.764 62.749"><defs><style>.a{stroke:rgba(0,0,0,0);fill:url(#a);}</style><linearGradient id="a" x1="0.028" y1="0.939" x2="1.009" y2="0.18" gradientUnits="objectBoundingBox"><stop offset="0" stop-color="#006cb5"/><stop offset="1" stop-color="#d768d9"/></linearGradient></defs><path class="a" d="M-14026.937,1837.431a21.343,21.343,0,0,1,21.316-21.32h12.354v-10.078h-12.354a31.194,31.194,0,0,0-22.2,9.2,31.2,31.2,0,0,0-9.193,22.2,31.077,31.077,0,0,0,6.627,19.3h-10.713a40.459,40.459,0,0,1-4.9-19.3,40.117,40.117,0,0,1,11.826-28.553,40.106,40.106,0,0,1,28.554-11.827h12.354V1797h8.961v.053h.015v8.982l-.015,10.078v22.652h-.042a21.339,21.339,0,0,1-21.273,19.984A21.342,21.342,0,0,1-14026.937,1837.431Zm10.427.127a10.336,10.336,0,0,0,10.325,10.321,10.333,10.333,0,0,0,10.321-10.321,10.334,10.334,0,0,0-10.321-10.325A10.337,10.337,0,0,0-14016.51,1837.558Zm239.148.878c0-8.58,4.949-13.97,11.823-13.97a10.663,10.663,0,0,1,8.527,4.343V1815h5.774v36.685h-5.774v-3.631a10.758,10.758,0,0,1-8.527,4.29C-13772.355,1852.349-13777.361,1847.181-13777.361,1838.436Zm6,0c0,5.115,2.916,8.8,7.48,8.8a8.687,8.687,0,0,0,6.874-3.518v-10.561a8.725,8.725,0,0,0-6.874-3.574C-13768.449,1829.581-13771.365,1833.264-13771.365,1838.436Zm-54.5,5.115c0-6.105,4.893-8.636,9.238-8.636,3.575,0,6.656,1.156,8.58,3.412v-3.962c0-3.077-2.53-4.949-6.214-4.949a10.871,10.871,0,0,0-7.865,3.356l-2.365-4.015a15.787,15.787,0,0,1,11.164-4.29c5.884,0,11.055,2.475,11.055,9.623v17.6h-5.774v-2.859a11.225,11.225,0,0,1-8.58,3.518C-13820.977,1852.349-13825.869,1849.434-13825.869,1843.551Zm5.826.109c0,2.859,2.422,4.731,5.669,4.731a7.777,7.777,0,0,0,6.323-2.75v-4.015a7.776,7.776,0,0,0-6.323-2.75C-13817.621,1838.876-13820.043,1840.745-13820.043,1843.66Zm-37.4-5.281c0-7.589,5.225-13.913,13.639-13.913,8.523,0,13.7,6.324,13.7,13.913,0,7.646-5.172,13.97-13.7,13.97C-13852.216,1852.349-13857.44,1846.025-13857.44,1838.379Zm5.993,0c0,4.731,2.749,8.855,7.646,8.855,4.953,0,7.7-4.124,7.7-8.855,0-4.674-2.749-8.8-7.7-8.8C-13848.7,1829.581-13851.447,1833.705-13851.447,1838.379Zm-30.524,9.68v3.631h-5.773V1815h5.773v13.8a10.513,10.513,0,0,1,8.524-4.343c6.82,0,11.77,5.39,11.77,13.97,0,8.746-5,13.913-11.77,13.913A10.68,10.68,0,0,1-13881.972,1848.059Zm0-14.848v10.5a8.579,8.579,0,0,0,6.821,3.518c4.618,0,7.533-3.627,7.533-8.8s-2.915-8.855-7.533-8.855A8.668,8.668,0,0,0-13881.972,1833.212Zm-65.284,15.013,2.641-4.181a13.711,13.711,0,0,0,9.021,3.74c3.465,0,5.224-1.266,5.224-3.243,0-2.312-2.806-3.137-6.049-3.849-4.564-.991-10.011-2.2-10.011-8.143,0-4.343,3.74-8.083,10.448-8.083a15.186,15.186,0,0,1,10.343,3.74l-2.422,4.068a10.723,10.723,0,0,0-7.864-3.19c-3.025,0-4.949,1.1-4.949,2.972,0,2.034,2.64,2.75,5.773,3.465,4.622.991,10.286,2.309,10.286,8.58,0,4.674-3.905,8.249-11.055,8.249A16.148,16.148,0,0,1-13947.256,1848.225Zm-28.765-4.674c0-6.105,4.893-8.636,9.239-8.636,3.574,0,6.655,1.156,8.58,3.412v-3.962c0-3.077-2.531-4.949-6.215-4.949a10.874,10.874,0,0,0-7.864,3.356l-2.365-4.015a15.8,15.8,0,0,1,11.164-4.29c5.887,0,11.055,2.475,11.055,9.623v17.6h-5.774v-2.859a11.222,11.222,0,0,1-8.58,3.518C-13971.128,1852.349-13976.021,1849.434-13976.021,1843.551Zm5.83.109c0,2.859,2.419,4.731,5.665,4.731a7.78,7.78,0,0,0,6.324-2.75v-4.015a7.78,7.78,0,0,0-6.324-2.75C-13967.771,1838.876-13970.19,1840.745-13970.19,1843.66Zm175.395,8.03v-26.565h5.774v3.906a11.346,11.346,0,0,1,8.636-4.512v5.721a8.57,8.57,0,0,0-1.815-.166c-2.422,0-5.664,1.65-6.82,3.521v18.094Zm-106.2,0v-16.719c0-4.124-2.146-5.39-5.39-5.39a8.926,8.926,0,0,0-6.821,3.574v18.535h-5.773V1815h5.773v13.751a12.7,12.7,0,0,1,9.405-4.29c5.722,0,8.58,2.968,8.58,8.414v18.81Z" transform="translate(14046.5 -1796.498)"/></svg>